<?xml version="1.0" encoding="UTF-8"?>
<svg width="18px" height="16px" viewBox="0 0 18 16" version="1.1" xmlns="http://www.w3.org/2000/svg" xmlns:xlink="http://www.w3.org/1999/xlink">
    <!-- Generator: Sketch 52.5 (67469) - http://www.bohemiancoding.com/sketch -->
    <title>合并形状</title>
    <desc>Created with Sketch.</desc>
    <g id="页面-3" stroke="none" stroke-width="1" fill="none" fill-rule="evenodd" fill-opacity="0.6">
        <g id="差旅/影像扫描" transform="translate(-199.000000, -23.000000)" fill="#FFFFFF">
            <g id="Icon/Line/Main-menu/Authority-and-configuration-management-Copy" transform="translate(196.000000, 19.000000)">
                <path d="M3.75,4.5 L20.25,4.5 C20.6642136,4.5 21,4.83578644 21,5.25 C21,5.66421356 20.6642136,6 20.25,6 L3.75,6 C3.33578644,6 3,5.66421356 3,5.25 C3,4.83578644 3.33578644,4.5 3.75,4.5 Z M3.75,9 L12.75,9 C13.1642136,9 13.5,9.33578644 13.5,9.75 C13.5,10.1642136 13.1642136,10.5 12.75,10.5 L3.75,10.5 C3.33578644,10.5 3,10.1642136 3,9.75 C3,9.33578644 3.33578644,9 3.75,9 Z M3.75,13.5 L12.75,13.5 C13.1642136,13.5 13.5,13.8357864 13.5,14.25 C13.5,14.6642136 13.1642136,15 12.75,15 L3.75,15 C3.33578644,15 3,14.6642136 3,14.25 C3,13.8357864 3.33578644,13.5 3.75,13.5 Z M3.75,18 L20.25,18 C20.6642136,18 21,18.3357864 21,18.75 C21,19.1642136 20.6642136,19.5 20.25,19.5 L3.75,19.5 C3.33578644,19.5 3,19.1642136 3,18.75 C3,18.3357864 3.33578644,18 3.75,18 Z M15.2573593,12 L19.5,7.75735931 L19.5,16.2426407 L15.2573593,12 Z" id="合并形状"></path>
            </g>
        </g>
    </g>
</svg>